<svg width="42" height="38" viewBox="0 0 42 38" fill="none" xmlns="http://www.w3.org/2000/svg">
<g filter="url(#filter0_d_1_11467)">
<path d="M26.4261 9.56018L21.5806 8.10643C21.2169 7.99791 20.843 7.9597 20.4726 7.97323V7.96076H14.5833L4.13965 4.49023L4.17122 19.1652L7.1692 20.6637L8.94426 16.3243L11.5373 17.3617L12.2097 15.6814L13.1835 16.6551L12.275 17.5639C11.9592 17.8796 11.7783 18.3164 11.7783 18.7632C11.7783 19.6775 12.5074 20.421 13.4143 20.4531C13.4459 21.3393 14.1583 22.0517 15.0445 22.0833C15.0761 22.9695 15.7885 23.6819 16.6747 23.7135C16.7073 24.6204 17.4502 25.3495 18.3648 25.3495C18.8114 25.3495 19.2484 25.1685 19.5639 24.8528L20.4726 23.9443L20.8377 24.3094C21.1535 24.6251 21.5902 24.8061 22.037 24.8061C22.9516 24.8061 23.6948 24.077 23.7269 23.1701C24.6131 23.1385 25.3255 22.4261 25.3571 21.5399C26.2433 21.5083 26.9557 20.7959 26.9873 19.9097C27.8942 19.877 28.6236 19.1341 28.6236 18.2198C28.6236 18.1426 28.6111 18.0664 28.6008 17.9897L29.3806 17.2099L30.0107 18.4708L33.424 16.7639L35.4866 20.702L37.8613 19.1195V5.07476L26.4261 9.56018ZM6.60616 19.1673L5.25696 18.4925L5.22963 5.99758L11.1842 7.97668L6.60616 19.1673ZM10.9321 15.9488L9.35526 15.3184L12.2179 8.32002L13.7757 8.83795L10.9321 15.9488ZM12.8651 18.7632C12.8651 18.6027 12.9295 18.4458 13.0431 18.332L13.9985 17.3768C14.1121 17.2633 14.2692 17.1985 14.4294 17.1985C14.7654 17.1985 15.0386 17.4721 15.0386 17.8077C15.0386 17.968 14.9739 18.1251 14.8603 18.2386L13.9052 19.1941C13.7916 19.3076 13.6345 19.3721 13.4743 19.3721C13.1383 19.3721 12.8651 19.0988 12.8651 18.7632ZM14.4952 20.3934C14.4952 20.2328 14.5597 20.076 14.6733 19.9622L15.6287 19.007C15.7423 18.8935 15.8994 18.8287 16.0596 18.8287C16.3955 18.8287 16.6688 19.1023 16.6688 19.4379C16.6688 19.5982 16.6041 19.7553 16.4905 19.8688L15.5353 20.8243C15.4218 20.9378 15.2647 21.0023 15.1044 21.0023C14.7685 21.0023 14.4952 20.729 14.4952 20.3934ZM16.1254 22.0236C16.1254 21.863 16.1899 21.7062 16.3035 21.5924L17.2589 20.6372C17.3725 20.5237 17.5296 20.4589 17.6898 20.4589C18.0257 20.4589 18.299 20.7325 18.299 21.0681C18.299 21.2284 18.2343 21.3854 18.1207 21.499L17.1655 22.4545C17.052 22.568 16.8949 22.6325 16.7346 22.6325C16.3987 22.6325 16.1254 22.3592 16.1254 22.0236ZM19.7509 23.1292L18.7957 24.0847C18.6822 24.1982 18.5251 24.2627 18.3648 24.2627C18.0289 24.2627 17.7556 23.9894 17.7556 23.6538C17.7556 23.4932 17.8201 23.3364 17.9337 23.2226L18.8891 22.2674C19.0027 22.1538 19.1598 22.0891 19.32 22.0891C19.6559 22.0891 19.9292 22.3627 19.9292 22.6983C19.9292 22.8586 19.8645 23.0156 19.7509 23.1292ZM26.9276 18.8287C26.7673 18.8287 26.6103 18.7642 26.4967 18.6507L21.9436 14.0973L21.1752 14.8657L25.7283 19.4188C25.8419 19.5326 25.9066 19.6895 25.9066 19.85C25.9066 20.1856 25.6333 20.4589 25.2974 20.4589C25.1371 20.4589 24.9801 20.3944 24.8665 20.2809L20.3134 15.7275L19.545 16.4959L24.0981 21.049C24.2117 21.1628 24.2764 21.3196 24.2764 21.4802C24.2764 21.8158 24.0031 22.0891 23.6672 22.0891C23.5069 22.0891 23.3499 22.0246 23.2363 21.9111L18.6832 17.3577L17.9148 18.1261L22.4679 22.6792C22.5815 22.793 22.6462 22.9498 22.6462 23.1104C22.6462 23.446 22.3729 23.7193 22.037 23.7193C21.8768 23.7193 21.7197 23.6548 21.6061 23.5413L20.9932 22.9281C21.0041 22.8522 21.016 22.776 21.016 22.6983C21.016 21.7837 20.2866 21.0405 19.3797 21.0084C19.3482 20.1222 18.6357 19.4098 17.7495 19.3782C17.718 18.492 17.0055 17.7796 16.1193 17.748C16.0867 16.8411 15.344 16.1117 14.4294 16.1117C14.3522 16.1117 14.2761 16.1242 14.1997 16.1345L12.6483 14.5832L14.863 9.04756H18.074L16.0787 11.0431C15.758 11.3631 15.582 11.7892 15.582 12.2424C15.582 13.1774 16.3427 13.9381 17.278 13.9381C17.7246 13.9381 18.1616 13.7572 18.4771 13.4414L19.9168 12.0015C20.2113 11.708 20.73 11.6966 21.0367 11.9776L22.3071 13.1421C22.7293 13.529 23.1984 13.8508 23.7004 14.1029L27.3585 17.7886C27.4721 17.9024 27.5368 18.0593 27.5368 18.2198C27.5368 18.5554 27.2635 18.8287 26.9276 18.8287ZM28.0802 16.9735L25.8466 14.723C26.0462 14.7418 26.2473 14.7532 26.45 14.7532V13.6664C25.1849 13.6664 23.9742 13.1955 23.0418 12.3406L21.7712 11.1766C21.054 10.518 19.8374 10.5443 19.1489 11.2336L17.7095 12.6733C17.5954 12.7863 17.4383 12.8513 17.278 12.8513C16.9421 12.8513 16.6688 12.5781 16.6688 12.2424C16.6688 12.0792 16.7317 11.9267 16.8469 11.8112L18.9183 9.74007C19.527 9.1314 20.441 8.89977 21.2681 9.14759L26.0685 10.5875L28.8674 16.1863L28.0802 16.9735ZM30.4966 17.0128L27.2019 10.423L29.6082 9.47899L32.9196 15.801L30.4966 17.0128ZM36.7746 18.5382L35.8886 19.1288L30.626 9.08019L36.7746 6.6686V18.5382Z" fill="#E3B873"/>
<circle cx="23.6667" cy="1.70141" r="0.485591" fill="#E3B873"/>
<circle cx="11.4099" cy="24.6306" r="0.485591" fill="#E3B873"/>
<circle cx="13.468" cy="26.3191" r="0.485591" fill="#E3B873"/>
<circle cx="15.8166" cy="27.5579" r="0.485591" fill="#E3B873"/>
<circle cx="18.3655" cy="28.3503" r="0.485591" fill="#E3B873"/>
<circle cx="26.2141" cy="2.47436" r="0.485591" fill="#E3B873"/>
<circle cx="28.5632" cy="3.72876" r="0.485591" fill="#E3B873"/>
<path d="M30.8305 3.02686V5.82855H27.9971" stroke="#E3B873" stroke-linecap="round" stroke-linejoin="round"/>
<path d="M9.01039 24.314L9.01039 22.0471L11.2744 22.0471" stroke="#E3B873" stroke-linecap="round" stroke-linejoin="round"/>
<path d="M11.8008 5.00987C13.3359 3.67406 14.3124 3.05949 16.1519 2.34124C18.1033 1.5793 19.4237 1.40038 21.5441 1.40039" stroke="#E3B873" stroke-linecap="round"/>
<path d="M32.4046 22.4984C31.2633 24.2786 29.1376 26.0167 27.4089 26.9712C25.575 27.9837 23.6102 28.5543 20.9931 28.6906" stroke="#E3B873" stroke-linecap="round"/>
</g>
<defs>
<filter id="filter0_d_1_11467" x="0.139648" y="0.900391" width="41.7217" height="36.2903" filterUnits="userSpaceOnUse" color-interpolation-filters="sRGB">
<feFlood flood-opacity="0" result="BackgroundImageFix"/>
<feColorMatrix in="SourceAlpha" type="matrix" values="0 0 0 0 0 0 0 0 0 0 0 0 0 0 0 0 0 0 127 0" result="hardAlpha"/>
<feOffset dy="4"/>
<feGaussianBlur stdDeviation="2"/>
<feComposite in2="hardAlpha" operator="out"/>
<feColorMatrix type="matrix" values="0 0 0 0 0 0 0 0 0 0 0 0 0 0 0 0 0 0 0.25 0"/>
<feBlend mode="normal" in2="BackgroundImageFix" result="effect1_dropShadow_1_11467"/>
<feBlend mode="normal" in="SourceGraphic" in2="effect1_dropShadow_1_11467" result="shape"/>
</filter>
</defs>
</svg>
